<svg xmlns="http://www.w3.org/2000/svg" viewBox="0 0 465 465"><defs><style>.cls-1{fill:#161616;}.cls-2{fill:#30bf88;}.cls-3{fill:#0c0707;}.cls-4{fill:#dbdbdb;}.cls-5{fill:#636363;}</style></defs><title>logo_ns</title><g id="Calque_2" data-name="Calque 2"><g id="Calque_1-2" data-name="Calque 1"><circle class="cls-1" cx="232.5" cy="232.5" r="232.5"/><circle class="cls-2" cx="232.5" cy="232.76" r="81.17"/><path class="cls-3" d="M232.5,245a12,12,0,1,1,12-12A12,12,0,0,1,232.5,245Z"/><path class="cls-4" d="M232.5,228.55A4.46,4.46,0,1,1,228,233a4.46,4.46,0,0,1,4.46-4.46m0-15A19.46,19.46,0,1,0,252,233a19.46,19.46,0,0,0-19.46-19.46Z"/><path class="cls-5" d="M338.52,32.24a247.66,247.66,0,0,1,108.9,123.24L317,204.2a92,92,0,0,0-48.72-51.59Z"/><path class="cls-5" d="M126.52,429.66A237,237,0,0,1,19,302.66l130.38-42.58a90.1,90.1,0,0,0,43,51.59Z"/></g></g></svg>